<?xml version="1.0" encoding="utf-8"?>
<!DOCTYPE svg PUBLIC "-//W3C//DTD SVG 1.1//EN" "http://www.w3.org/Graphics/SVG/1.1/DTD/svg11.dtd">
<svg version="1.1" xmlns="http://www.w3.org/2000/svg" xmlns:xlink="http://www.w3.org/1999/xlink" x="0px" y="0px" viewBox="0 0 1000 1000" enable-background="new 0 0 1000 1000" xml:space="preserve">
<metadata> Svg Vector Icons : http://www.onlinewebfonts.com/icon </metadata>
<g>
<path fill="white" d="M690.8,285.9c23.2,0,43.8-18.1,43.8-41.3V51.3c0-23.2-20.6-41.3-43.8-41.3c-23.2,0-41.3,18.1-41.3,41.3v190.8C649.6,267.9,667.6,285.9,690.8,285.9L690.8,285.9z M605.7,115.7H391.7v64.5h214.1V115.7L605.7,115.7z M855.9,115.7h-79.9v64.5h82.5c23.2,0,43.8,20.6,43.8,43.8v147H95.1v-147c0-23.2,20.6-43.8,43.8-43.8h82.5v-64.5h-77.4c-61.9,0-110.9,51.6-110.9,110.9v649.9C30.6,938.4,79.6,990,141.5,990h714.4c61.9,0,110.9-51.6,110.9-110.9V229.2C969.4,167.3,917.8,115.7,855.9,115.7L855.9,115.7z M904.9,881.7c0,23.2-20.6,43.8-43.8,43.8H138.9c-23.2,0-43.8-20.6-43.8-43.8V435.5h809.8V881.7L904.9,881.7z M265.3,628.9c36.1,0,64.5-28.4,64.5-64.5c0-36.1-28.4-64.5-64.5-64.5s-64.5,28.4-64.5,64.5C200.8,598,229.2,628.9,265.3,628.9L265.3,628.9z M500,628.9c36.1,0,64.5-28.4,64.5-64.5c0-36.1-28.4-64.5-64.5-64.5s-64.5,28.4-64.5,64.5C435.5,598,463.9,628.9,500,628.9L500,628.9z M262.7,863.6c36.1,0,64.5-28.4,64.5-64.5s-28.4-64.5-64.5-64.5c-36.1,0-64.5,28.4-64.5,64.5C198.3,832.7,229.2,863.6,262.7,863.6L262.7,863.6z M500,863.6c36.1,0,64.5-28.4,64.5-64.5s-28.4-64.5-64.5-64.5s-64.5,28.4-64.5,64.5C435.5,832.7,463.9,863.6,500,863.6L500,863.6z M732.1,628.9c36.1,0,64.5-28.4,64.5-64.5c0-36.1-28.4-64.5-64.5-64.5s-64.5,28.4-64.5,64.5C670.2,598,698.6,628.9,732.1,628.9L732.1,628.9z M306.6,285.9c23.2,0,43.8-18.1,43.8-41.3V51.3c0-23.2-20.6-41.3-43.8-41.3c-23.2,0-41.3,18.1-41.3,41.3v190.8C265.3,267.9,283.4,285.9,306.6,285.9L306.6,285.9z"/></g>
</svg>