<svg xmlns="http://www.w3.org/2000/svg" viewBox="0 0 480 480"><path fill="white" d="M 32 20 C 14.355 20 0 34.355 0 52 L 0 428 C 0 438.801 5.391875 448.79719 14.421875 454.74219 C 18.112875 457.17019 23.072906 456.14898 25.503906 452.45898 C 27.932906 448.76898 26.90875 443.80891 23.21875 441.37891 C 18.69775 438.40291 16 433.401 16 428 L 16 52 C 16 43.178 23.178 36 32 36 L 448 36 C 456.822 36 464 43.178 464 52 L 464 428 C 464 436.822 456.822 444 448 444 L 94 444 L 94 87 C 94 82.582 90.418 79 86 79 C 81.582 79 78 82.582 78 87 L 78 452 C 78 456.418 81.582 460 86 460 L 448 460 C 465.645 460 480 445.645 480 428 L 480 52 C 480 34.355 465.645 20 448 20 L 32 20 z M 150 72 C 136.767 72 126 82.767 126 96 L 126 170 C 126 183.233 136.767 194 150 194 L 265 194 C 278.233 194 289 183.233 289 170 L 289 96 C 289 82.767 278.233 72 265 72 L 150 72 z M 355 72 C 341.767 72 331 82.767 331 96 L 331 170 C 331 183.233 341.767 194 355 194 L 412 194 C 425.233 194 436 183.233 436 170 L 436 96 C 436 82.767 425.233 72 412 72 L 355 72 z M 40 79 C 35.582 79 32 82.582 32 87 C 32 91.418 35.582 95 40 95 L 54 95 C 58.418 95 62 91.418 62 87 C 62 82.582 58.418 79 54 79 L 40 79 z M 150 88 L 265 88 C 269.411 88 273 91.589 273 96 L 273 170 C 273 174.411 269.411 178 265 178 L 150 178 C 145.589 178 142 174.411 142 170 L 142 96 C 142 91.589 145.589 88 150 88 z M 355 88 L 412 88 C 416.411 88 420 91.589 420 96 L 420 170 C 420 174.411 416.411 178 412 178 L 355 178 C 350.589 178 347 174.411 347 170 L 347 96 C 347 91.589 350.589 88 355 88 z M 169 125 C 164.582 125 161 128.582 161 133 C 161 137.418 164.582 141 169 141 L 211 141 C 215.418 141 219 137.418 219 133 C 219 128.582 215.418 125 211 125 L 169 125 z M 243.25781 125 C 238.83981 125 235.25781 128.582 235.25781 133 C 235.25781 137.418 238.83981 141 243.25781 141 L 247 141 C 251.418 141 255 137.418 255 133 C 255 128.582 251.418 125 247 125 L 243.25781 125 z M 40 129 C 35.582 129 32 132.582 32 137 C 32 141.418 35.582 145 40 145 L 54 145 C 58.418 145 62 141.418 62 137 C 62 132.582 58.418 129 54 129 L 40 129 z M 40 179 C 35.582 179 32 182.582 32 187 C 32 191.418 35.582 195 40 195 L 54 195 C 58.418 195 62 191.418 62 187 C 62 182.582 58.418 179 54 179 L 40 179 z M 150 231 C 136.767 231 126 241.767 126 255 L 126 347.58008 C 126 351.99808 129.582 355.58008 134 355.58008 C 138.418 355.58008 142 351.99808 142 347.58008 L 142 255 C 142 250.589 145.589 247 150 247 L 412 247 C 416.411 247 420 250.589 420 255 L 420 386 C 420 390.411 416.411 394 412 394 L 153.70117 394 C 169.33717 359.328 182.10194 353.55977 188.58594 353.38477 C 197.94394 353.14877 203.10614 365.99702 218.99414 366.04102 C 240.69014 366.04102 253.36803 342.20909 264.33203 322.62109 C 272.76903 307.54909 282.33152 290.46488 291.47852 290.42188 C 298.47752 290.42188 305.64777 301.34103 310.13477 307.58203 C 319.02577 319.94803 329.06248 333.94045 346.27148 333.31445 C 367.51748 332.50845 373.02048 310.11212 388.89648 310.07812 C 393.31448 310.07112 396.89177 306.48441 396.88477 302.06641 C 396.87777 297.65241 393.29777 294.07812 388.88477 294.07812 C 365.57777 294.07812 358.06511 316.85417 345.66211 317.32617 C 326.99811 318.05717 318.35934 274.42188 291.40234 274.42188 C 272.92634 274.50988 261.46009 294.99564 250.37109 314.80664 C 241.12609 331.32464 230.64736 350.04102 219.06836 350.04102 C 210.10536 350.04102 204.7403 336.98762 188.1543 337.39062 C 168.4983 337.92062 151.11753 357.41347 135.01953 396.98047 C 133.41653 400.84447 135.04394 405.20523 138.58594 407.11523 C 142.04394 408.97723 145.975 410 150 410 L 412 410 C 425.233 410 436 399.233 436 386 L 436 255 C 436 241.767 425.233 231 412 231 L 150 231 z M 47 387 A 15 15 0 0 0 47 417 A 15 15 0 0 0 47 387 z"></path></svg>