<?xml version="1.0" encoding="utf-8"?>
<!DOCTYPE svg PUBLIC "-//W3C//DTD SVG 1.1//EN" "http://www.w3.org/Graphics/SVG/1.1/DTD/svg11.dtd">
<svg version="1.1" xmlns="http://www.w3.org/2000/svg" xmlns:xlink="http://www.w3.org/1999/xlink" x="0px" y="0px" viewBox="0 0 1000 1000" enable-background="new 0 0 1000 1000" xml:space="preserve">
<metadata> Svg Vector Icons : http://www.onlinewebfonts.com/icon </metadata>
<g><g transform="translate(0.000000,512.000000) scale(0.100000,-0.100000)"><path fill="white" d="M2544.8,5015.1c-385.5-65.2-717.3-351-868.8-748l-42.2-111.2l-5.8-3245.1l-3.8-3247h153.4h153.4V876.3c0,3191.4,0,3212.5,40.3,3331.4c74.8,232.1,241.7,398.9,473.7,473.7c118.9,40.3,143.8,40.3,2882.6,40.3h2761.8l-84.4-109.3c-94-122.7-132.3-189.9-193.7-349.1l-40.3-107.4l-9.6-4037.2c-9.6-3814.7-11.5-4041-44.1-4123.5c-47.9-122.7-151.5-257-258.9-335.6c-255.1-189.9-673.2-189.9-928.3,0c-404.7,297.3-404.7,949.4,0,1246.6c107.4,80.5,297.3,143.8,429.6,143.8c74.8,0,103.6,9.6,140,47.9c63.3,61.4,63.3,149.6,0,212.9l-46,46l-3045.6-3.8l-3045.6-5.7L836-2702.5c-352.9-136.2-581.1-375.9-700-726.9C88-3573.3,88-3861,136-4004.8c120.8-360.5,377.8-617.6,740.3-740.3c101.6-34.5,226.3-36.4,3202.9-36.4h3097.4l130.4,46c326.1,111.2,579.2,362.5,707.7,703.8l44.1,113.2l9.6,4037.2c9.6,3814.7,11.5,4041,44.1,4123.5c115.1,291.5,397,479.5,723,479.5c462.2,0,792.1-352.9,761.4-813.2c-13.4-191.8-49.9-299.2-143.8-423.9c-145.8-191.8-370.1-297.3-640.6-297.3h-130.4V3032v-157.3l178.4,11.5c360.6,23,657.9,189.9,853.5,481.4c136.2,203.3,186,358.6,186,586.9c0,287.7-101.6,529.3-308.8,738.4c-130.4,132.3-237.8,203.3-427.7,276.2l-126.6,49.9l-3222.1,1.9C4042.7,5022.8,2571.7,5020.8,2544.8,5015.1z M6163.9-3061.2c-166.9-214.8-234-398.9-234-655.9s67.1-441.1,234-657.8l84.4-109.3H3641.9c-2556.6,0-2610.3,0-2729.2,38.4c-314.5,99.7-515.9,383.6-515.9,728.8c0,341.4,201.4,627.1,508.2,726.9c111.2,36.4,193.7,38.4,2729.2,38.4l2614.1,1.9L6163.9-3061.2z"/><path d="M4079.2,3647.6v-153.4h153.4H4386v153.4V3801h-153.4h-153.4V3647.6z"/>
<path fill="white" d="M4692.9,3647.6v-153.4h153.4h153.4v153.4V3801h-153.4h-153.4V3647.6z"/>
<path fill="white" d="M5306.6,3647.6v-153.4h153.4h153.4v153.4V3801h-153.4h-153.4V3647.6z"/>
<path fill="white" d="M2544.8,2113.3v-153.4h2301.5h2301.5v153.4v153.4H4846.3H2544.8V2113.3z"/>
<path fill="white" d="M2544.8,1499.6v-153.4h2301.5h2301.5v153.4V1653H4846.3H2544.8V1499.6z"/>
<path fill="white" d="M2544.8,885.8V732.4h2301.5h2301.5v153.4v153.4H4846.3H2544.8V885.8z"/>
<path fill="white" d="M2544.8,272.1V118.7h2301.5h2301.5v153.4v153.4H4846.3H2544.8V272.1z"/>
<path fill="white" d="M2544.8-341.6V-495h2301.5h2301.5v153.4v153.4H4846.3H2544.8V-341.6z"/>
<path fill="white" d="M5613.5-1262.2v-153.4h767.2h767.2v153.4v153.4h-767.2h-767.2V-1262.2z"/></g></g>
</svg>